<svg xmlns="http://www.w3.org/2000/svg" viewBox="0 0 120 120" width="120" height="120" fill="none">
  <!-- Tenacious firefly mark, drawn white for the colored header bar -->
  <g fill="#ffffff">
    <!-- antennae -->
    <circle cx="46" cy="22" r="6"/>
    <circle cx="74" cy="22" r="6"/>
    <path d="M48 26 L58 44" stroke="#ffffff" stroke-width="6" stroke-linecap="round"/>
    <path d="M72 26 L62 44" stroke="#ffffff" stroke-width="6" stroke-linecap="round"/>
    <!-- left wing -->
    <path d="M55 46 C30 40 8 50 14 70 C20 88 46 84 56 64 C58 58 58 50 55 46 Z"/>
    <!-- right wing -->
    <path d="M65 46 C90 40 112 50 106 70 C100 88 74 84 64 64 C62 58 62 50 65 46 Z"/>
    <!-- body / abdomen -->
    <path d="M60 44 C68 44 70 54 70 64 C70 84 64 102 60 102 C56 102 50 84 50 64 C50 54 52 44 60 44 Z"/>
  </g>
</svg>
